<svg xmlns="http://www.w3.org/2000/svg" viewBox="0 0 477 480">
  <g style="opacity:.5">
    <path d="M1 230.52c1.3-13.2 2.81-26.36 5.53-39.38 6.84-32.73 20.23-62.54 39.89-89.48 24.51-33.59 55.76-59.03 93.59-76.39 23.81-10.93 48.79-17.28 74.84-19.68 35.98-3.32 70.99 1.02 104.87 13.62C359.76 34.1 392.95 58.6 420.06 91.5c30.05 36.46 47.41 78.47 51.9 125.24 6.2 64.6-10.89 122.81-51.91 173.48-32.64 40.32-74.32 67.14-124.48 79.99-32.52 8.33-65.57 9.48-98.88 3.67-40.91-7.14-77.35-23.73-109.21-50.21-43.52-36.2-70.96-82.05-81.92-137.7-2.25-11.42-3.33-22.96-4.57-34.5v-20.96ZM236.97 34.84C126.29 34.34 31.21 124.62 31.29 241c.08 114.68 93.96 208.97 212.1 205.77 108.74-2.95 200.34-90.74 200.16-206.7-.19-116.76-96.08-206.23-206.58-205.22Z"/>
    <path d="M345.03 241.5c0-6.15-.09-12.31.04-18.46.06-2.71-.87-4.25-3.52-5.18-6.1-2.16-10.17-6.75-13.31-12.19-9.62-16.66-10.58-34.9-8.34-53.25 1.26-10.31-2.13-17.29-10.64-22.01-25.95-14.36-68.65-4.61-81.97 23.78-6.05 12.89-5.96 26.09-2.02 39.38 5.06 17.09 14.36 32.11 23.76 47.03 12.22 19.4 25.53 38.12 36.44 58.33 8 14.81 14.71 30.02 17.43 46.94 4.04 25.13-10.33 45.43-29.61 55.42-30.63 15.86-62.08 15.32-93.56 2.92-29.76-11.71-53.27-31.24-71.31-57.78-6.13-9.02-13.65-17.15-19.76-26.27-4.36-6.5-8.27-13.26-10.37-20.91-1.46-5.34-1.67-10.6 1.55-15.34 1.96-2.89 1.31-5.05-.48-7.65-6.12-8.91-12.11-17.9-18.05-26.93-1.72-2.62-3.63-5.37-1.16-8.66 3.12-4.17 8.09-3.82 11.56 1.15 5.42 7.77 10.75 15.61 15.86 23.59 2.24 3.5 4.17 5.44 9.04 4.26 5.24-1.27 10.11.93 13.22 5.89a275.022 275.022 0 0 0 35.25 45.09c18.84 19.52 39.55 36.13 67.01 41.79 9.01 1.86 18.09 2.6 27.1-.29 9.67-3.1 13.58-8.59 14.33-18.63.97-12.9-5.33-23.18-11.73-33.23-13.02-20.45-26.86-40.39-39.86-60.86-12.25-19.3-22.5-39.71-27.37-62.21-5.8-26.73-2.17-51.7 17.11-72.61 10.76-11.67 23.95-19.98 38.67-25.79 26-10.27 52.91-13.94 80.66-10 33.18 4.71 55.26 24.95 63.26 58.6 4.61 19.4 6.04 39.1.43 58.67-2.49 8.68-6.59 16.39-14.88 20.99-2.37 1.31-2.36 3.36-2.36 5.55v34.42c0 1.5.06 3-.1 4.48-.39 3.54-2.26 6.19-5.9 6.28-3.94.1-6.14-2.59-6.26-6.37-.21-6.64-.06-13.3-.06-19.95h-.08Z"/>
  </g>
</svg>
