<svg xmlns="http://www.w3.org/2000/svg" viewBox="0 0 24 24" fill="currentColor">
    <path d="M3.13 1.338C2.08 1.96.02 4.328 0 4.95v1.03c0 1.303 1.22 2.45 2.325 2.45 1.33 0 2.436-1.102 2.436-2.41 0 1.308 1.07 2.41 2.4 2.41 1.328 0 2.362-1.102 2.362-2.41 0 1.308 1.137 2.41 2.466 2.41h.024c1.33 0 2.466-1.102 2.466-2.41 0 1.308 1.034 2.41 2.363 2.41 1.33 0 2.4-1.102 2.4-2.41 0 1.308 1.106 2.41 2.435 2.41C22.78 8.43 24 7.283 24 5.98V4.95c-.02-.62-2.082-2.99-3.13-3.612-3.253-.114-5.508-.134-8.87-.133-3.362 0-7.945.053-8.87.133zm6.376 6.477a2.74 2.74 0 0 1-.468.602c-.5.49-1.19.795-1.947.795a2.786 2.786 0 0 1-1.95-.795c-.182-.178-.32-.37-.446-.59-.127.222-.265.412-.447.59a2.788 2.788 0 0 1-1.95.795c-.092 0-.187-.025-.28-.04v.323c0 2.95.003 5.847.01 7.538.004 1.012.01 1.86.012 2.484.002.657.004 1.023.004 1.023v.04c0 1.44 3.126 2.604 6.973 2.604 3.847 0 6.973-1.164 6.973-2.604v-.04s.002-.367.004-1.024c.003-.623.008-1.472.012-2.485.007-1.69.01-4.588.01-7.537v-.323c-.093.015-.188.04-.28.04a2.788 2.788 0 0 1-1.95-.795c-.18-.178-.32-.37-.446-.59-.127.22-.265.412-.447.59a2.786 2.786 0 0 1-1.95.795c-.76 0-1.446-.303-1.947-.795a2.74 2.74 0 0 1-.468-.602zM12 11.956c1.858 0 3.364 1.482 3.364 3.31v.002c0 1.83-1.506 3.312-3.364 3.312-1.858 0-3.364-1.483-3.364-3.312s1.506-3.312 3.364-3.312z"/>
</svg>